<?xml version="1.0" encoding="utf-8"?>
<!-- Generator: Adobe Illustrator 16.0.4, SVG Export Plug-In . SVG Version: 6.00 Build 0)  -->
<!DOCTYPE svg PUBLIC "-//W3C//DTD SVG 1.1//EN" "http://www.w3.org/Graphics/SVG/1.1/DTD/svg11.dtd" [
	<!ENTITY ns_extend "http://ns.adobe.com/Extensibility/1.0/">
	<!ENTITY ns_ai "http://ns.adobe.com/AdobeIllustrator/10.0/">
	<!ENTITY ns_graphs "http://ns.adobe.com/Graphs/1.0/">
	<!ENTITY ns_vars "http://ns.adobe.com/Variables/1.0/">
	<!ENTITY ns_imrep "http://ns.adobe.com/ImageReplacement/1.0/">
	<!ENTITY ns_sfw "http://ns.adobe.com/SaveForWeb/1.0/">
	<!ENTITY ns_custom "http://ns.adobe.com/GenericCustomNamespace/1.0/">
	<!ENTITY ns_adobe_xpath "http://ns.adobe.com/XPath/1.0/">
]>
<svg version="1.1" id="Layer_1" xmlns:x="&ns_extend;" xmlns:i="&ns_ai;" xmlns:graph="&ns_graphs;"
	 xmlns="http://www.w3.org/2000/svg" xmlns:xlink="http://www.w3.org/1999/xlink" x="0px" y="0px" width="364.965px"
	 height="159.897px" viewBox="259.517 89.397 364.965 159.897" enable-background="new 259.517 89.397 364.965 159.897"
	 xml:space="preserve">
<metadata>
	<sfw  xmlns="&ns_sfw;">
		<slices></slices>
		<sliceSourceBounds  width="1024" height="769" x="-1.5" y="-0.5" bottomLeftOrigin="true"></sliceSourceBounds>
	</sfw>
</metadata>
<symbol  id="_x39_60grid_58w_24gut_12col" viewBox="-480 -384 960 768">
	
		<image overflow="visible" enable-background="new    " width="960" height="768" id="_x39_60_grid_2_" xlink:href="9EA69284F41BCD75.png"  transform="matrix(1 0 0 -1 -480 384)">
	</image>
</symbol>
<g id="grid" display="none" opacity="0.2">
	
		<use xlink:href="#_x39_60grid_58w_24gut_12col"  width="960" height="768" x="-480" y="-384" transform="matrix(1 0 0 -1 512 384)" display="inline" overflow="visible"/>
</g>
<g id="background" display="none">
	<rect x="-1" y="1" display="inline" fill="#FFE78F" width="1024" height="768"/>
</g>
<g id="logo">
	<g id="Logo">
		<path id="hat" fill="none" stroke="#9E001E" stroke-width="4.6198" stroke-miterlimit="10" d="M475.367,172.297v-13.385
			c1.54,0.007,1.537,0.039,1.795,0.039c15.878,0,29.262-12.87,29.262-28.745c0-15.877-12.551-28.746-28.426-28.746
			c-7.19,0-13.65,2.657-18.688,7.02c-3.862-9.815-13.354-16.773-24.541-16.773c-11.413,0-21.084,7.246-24.785,17.377
			c-2.854-1.263-5.993-1.978-9.315-1.978c-12.757,0-23.093,10.342-23.093,23.1c0,12.757,9.319,23.099,22.076,23.099
			c1.494,0,1.799-0.154,3.339-0.425v19.418"/>
		
			<line id="top_of_sign" fill="none" stroke="#9E001E" stroke-width="1.5399" stroke-miterlimit="10" x1="261.827" y1="173.066" x2="622.173" y2="173.066"/>
		<path id="bottom_of_sign" fill="none" stroke="#9E001E" stroke-width="4.6198" stroke-miterlimit="10" d="M261.827,249.294
			c0-9.639,80.667-17.452,180.173-17.452s180.173,7.813,180.173,17.452"/>
	</g>
	<g>
		<path fill="#9E001E" d="M302.16,212.884c0,1.537-0.546,2.856-1.638,3.96c-1.092,1.104-2.406,1.656-3.942,1.656h-11.16v-31.032
			h3.132c3.551,0,6.593,1.267,9.126,3.798c2.532,2.532,3.798,5.574,3.798,9.126c0,2.736-0.804,5.22-2.412,7.452
			C301.128,208.9,302.16,210.58,302.16,212.884z M298.704,200.392c0-2.808-0.99-5.214-2.97-7.218
			c-1.98-2.003-4.374-3.006-7.182-3.006h-0.396l-0.072,20.376h0.468c2.808,0,5.202-0.996,7.182-2.988
			C297.714,205.564,298.704,203.176,298.704,200.392z M299.46,212.884c0-0.696-0.222-1.314-0.666-1.854
			c-0.444-0.54-1.014-0.87-1.71-0.99c-2.472,2.16-5.316,3.24-8.532,3.24c-0.192,0-0.349-0.012-0.468-0.036v2.556h8.496
			c0.768,0,1.44-0.288,2.016-0.864C299.172,214.36,299.46,213.676,299.46,212.884z M292.62,193.516l-0.972,13.932
			c-0.024,0-0.384,0.132-1.08,0.396l0.072-14.904C291.192,193.084,291.852,193.276,292.62,193.516z M305.724,212.884
			c0,2.208-0.78,4.092-2.34,5.652h-1.08c1.56-1.56,2.34-3.444,2.34-5.652c0-2.184-0.78-4.08-2.34-5.688
			c1.056-2.111,1.584-4.379,1.584-6.804c0-2.664-0.648-5.16-1.944-7.488c-1.248-2.255-2.952-4.068-5.112-5.436h1.116
			c2.16,1.368,3.864,3.181,5.112,5.436c1.296,2.329,1.944,4.824,1.944,7.488c0,2.376-0.54,4.644-1.62,6.804
			C304.944,208.804,305.724,210.7,305.724,212.884z"/>
		<path fill="#9E001E" d="M332.255,218.5h-2.88l-1.152-3.168h-15.84l-1.152,3.168h-2.916l11.988-32.58L332.255,218.5z
			 M327.18,212.632l-6.876-18.756l-6.912,18.756H327.18z M315.191,217.816l-0.288,0.72h-1.08l0.288-0.72H315.191z M321.6,204.46
			l-3.636,5.688h-1.08l3.42-9.216L321.6,204.46z M335.963,218.536h-1.08l-11.664-31.032h1.116L335.963,218.536z"/>
		<path fill="#9E001E" d="M359.723,187.468l-13.14,17.676l11.052,13.356h-3.492l-9.216-11.124l-3.636,4.824v6.3h-2.736l0.036-31.032
			h2.808l-0.036,20.124l15.012-20.124H359.723z M345.575,211.984l-0.684,1.008v5.508h-1.152l0.036-5.508l1.26-1.656L345.575,211.984
			z M346.043,187.468l-1.116,11.268l-1.116,1.44l0.036-12.708H346.043z M363.899,187.468l-13.104,17.568l11.088,13.5h-1.08
			l-11.088-13.5l13.068-17.568H363.899z"/>
		<path fill="#9E001E" d="M380.027,218.5h-13.536v-31.032h12.456v2.7h-9.684v16.452h9.756v2.7h-9.756v6.48h10.764V218.5z
			 M382.295,193.3h-6.696l-3.924,10.836V192.58h9.54v-5.112h1.08V193.3L382.295,193.3z M382.295,211.804h-9.504v1.512h-1.116v-2.232
			h9.54v-6.948h1.08V211.804z M383.339,218.536h-1.116v-5.22h1.116V218.536z"/>
		<path fill="#9E001E" d="M402.023,200.392c0,2.232-0.547,4.314-1.639,6.246c-1.092,1.932-2.562,3.486-4.41,4.662l3.852,6.3
			l-2.304,1.404l-3.997-6.516c-1.464,0.528-2.928,0.792-4.392,0.792c-0.216,0-0.384-0.012-0.504-0.036v5.256h-2.7v-31.032h3.204
			c3.552,0,6.588,1.267,9.108,3.798C400.763,193.798,402.023,196.84,402.023,200.392z M399.323,200.392
			c0-2.808-1.002-5.214-3.006-7.218c-2.004-2.003-4.398-3.006-7.183-3.006h-0.504v20.376h0.504c2.784,0,5.178-0.996,7.183-2.988
			C398.32,205.564,399.323,203.176,399.323,200.392z M393.527,193.948l-1.296,13.5c-0.121,0.048-0.306,0.114-0.558,0.198
			s-0.438,0.15-0.558,0.198l0.036-14.904C391.678,193.084,392.47,193.42,393.527,193.948z M392.519,215.548
			c-0.048,0-0.096,0-0.144,0c-0.072,0.024-0.121,0.036-0.144,0.036v2.916h-1.116v-2.916l1.296-0.216L392.519,215.548z
			 M405.587,200.392c0,2.256-0.468,4.386-1.404,6.39c-0.936,2.004-2.231,3.714-3.888,5.13l3.78,6.048l-3.672,2.232h-1.08
			l3.636-2.232l-3.78-6.048c1.656-1.416,2.958-3.126,3.906-5.13c0.948-2.004,1.422-4.134,1.422-6.39c0-2.664-0.647-5.16-1.944-7.488
			c-1.271-2.255-2.987-4.068-5.147-5.436h1.116c2.16,1.368,3.863,3.181,5.111,5.436
			C404.939,195.232,405.587,197.728,405.587,200.392z"/>
		<path fill="#9E001E" d="M431.975,187.468l-16.991,31.068h-3.13l6.989-12.848l-15.992-18.221h3.642l13.779,15.7l8.601-15.7
			L431.975,187.468L431.975,187.468z M420.203,198.16l-0.36,0.756l-10.116-11.448h2.988L420.203,198.16z M435.899,187.468
			l-17.101,31.068l-1.071,0.005l17.101-31.068L435.899,187.468z"/>
		<path fill="#9E001E" d="M459.73,210.976c0,2.064-0.738,3.834-2.215,5.31c-1.476,1.476-3.246,2.214-5.31,2.214
			c-2.232,0-4.104-0.828-5.616-2.484l2.052-1.836c0.96,1.08,2.147,1.62,3.564,1.62c1.319,0,2.448-0.474,3.384-1.422
			c0.937-0.948,1.404-2.082,1.404-3.402c0-1.248-0.42-2.34-1.26-3.276l-4.465-4.932c-1.728-1.92-2.592-4.104-2.592-6.552
			c0-2.472,0.87-4.548,2.61-6.228c1.74-1.679,3.846-2.52,6.317-2.52v2.7c-1.728,0-3.197,0.576-4.409,1.728s-1.818,2.592-1.818,4.32
			c0,1.8,0.624,3.384,1.872,4.752l4.5,4.896C459.069,207.304,459.73,209.008,459.73,210.976z M463.258,210.976
			c0,3.048-1.152,5.568-3.456,7.56h-1.08c2.305-1.992,3.456-4.512,3.456-7.56c0-2.616-0.863-4.872-2.592-6.768l-4.464-4.896
			c-0.84-0.936-1.26-1.968-1.26-3.096c0-1.056,0.354-1.914,1.062-2.574c0.708-0.66,1.59-0.99,2.646-0.99h1.188v0.144
			c-1.943,0.48-2.916,1.8-2.916,3.96c0,0.864,0.36,1.716,1.08,2.556l4.141,4.896C462.525,205.936,463.258,208.192,463.258,210.976z
			 M460.918,192.652c-0.384,0-0.756,0.036-1.116,0.108v-5.292h1.116V192.652z"/>
		<path fill="#9E001E" d="M479.386,218.5H465.85v-31.032h12.456v2.7h-9.684v16.452h9.756v2.7h-9.756v6.48h10.764V218.5z
			 M481.654,193.3h-6.696l-3.924,10.836V192.58h9.54v-5.112h1.08V193.3L481.654,193.3z M481.654,211.804h-9.504v1.512h-1.116v-2.232
			h9.54v-6.948h1.08V211.804z M482.698,218.536h-1.116v-5.22h1.116V218.536z"/>
		<path fill="#9E001E" d="M509.985,216.304c-2.616,1.752-5.532,2.628-8.748,2.628c-4.393,0-8.148-1.56-11.269-4.68
			s-4.68-6.864-4.68-11.232c0-4.392,1.56-8.154,4.68-11.286c3.12-3.132,6.876-4.698,11.269-4.698c3.144,0,6.06,0.876,8.748,2.628
			l-1.477,2.304c-2.16-1.44-4.584-2.16-7.271-2.16c-3.648,0-6.764,1.29-9.343,3.87c-2.58,2.58-3.869,5.694-3.869,9.342
			c0,3.624,1.296,6.727,3.888,9.306c2.592,2.58,5.7,3.87,9.324,3.87c2.64,0,5.062-0.72,7.271-2.16L509.985,216.304z M502.605,192.76
			c-2.856,0.168-5.274,1.291-7.255,3.366c-1.979,2.076-2.97,4.554-2.97,7.434c0,3.6,1.477,6.492,4.428,8.676
			c1.536,0.913,3.204,1.417,5.004,1.512h-0.575c-1.944,0-3.78-0.504-5.509-1.512c-1.607-0.936-2.886-2.226-3.834-3.87
			c-0.947-1.644-1.422-3.426-1.422-5.346c0-2.976,1.057-5.52,3.168-7.632c2.112-2.112,4.645-3.168,7.597-3.168
			C501.381,192.22,501.837,192.4,502.605,192.76z M512.613,190.708l-2.196,3.276c-0.288-0.192-0.552-0.348-0.792-0.468l2.232-3.348
			L512.613,190.708z M513.333,216.34l-0.792,0.504l-2.916-4.392c0.384-0.192,0.648-0.348,0.792-0.468L513.333,216.34z"/>
		<path fill="#9E001E" d="M532.018,200.392c0,2.232-0.547,4.314-1.639,6.246c-1.092,1.932-2.562,3.486-4.41,4.662l3.854,6.3
			l-2.305,1.404l-3.995-6.516c-1.466,0.528-2.929,0.792-4.394,0.792c-0.215,0-0.384-0.012-0.504-0.036v5.256h-2.699v-31.032h3.203
			c3.553,0,6.588,1.267,9.108,3.798C530.758,193.798,532.018,196.84,532.018,200.392z M529.317,200.392
			c0-2.808-1.003-5.214-3.007-7.218c-2.005-2.003-4.397-3.006-7.183-3.006h-0.504v20.376h0.504c2.784,0,5.178-0.996,7.183-2.988
			C528.314,205.564,529.317,203.176,529.317,200.392z M523.521,193.948l-1.297,13.5c-0.119,0.048-0.306,0.114-0.558,0.198
			s-0.439,0.15-0.559,0.198l0.035-14.904C521.673,193.084,522.465,193.42,523.521,193.948z M522.514,215.548
			c-0.049,0-0.097,0-0.145,0c-0.072,0.024-0.12,0.036-0.145,0.036v2.916h-1.115v-2.916l1.296-0.216L522.514,215.548z
			 M535.582,200.392c0,2.256-0.469,4.386-1.404,6.39c-0.937,2.004-2.231,3.714-3.889,5.13l3.78,6.048l-3.672,2.232h-1.08
			l3.636-2.232l-3.779-6.048c1.656-1.416,2.957-3.126,3.906-5.13c0.947-2.004,1.422-4.134,1.422-6.39
			c0-2.664-0.648-5.16-1.944-7.488c-1.271-2.255-2.987-4.068-5.147-5.436h1.116c2.159,1.368,3.862,3.181,5.11,5.436
			C534.934,195.232,535.582,197.728,535.582,200.392z"/>
		<path fill="#9E001E" d="M551.709,218.5h-13.536v-31.032h12.456v2.7h-9.684v16.452h9.756v2.7h-9.756v6.48h10.764V218.5
			L551.709,218.5z M553.977,193.3h-6.694l-3.924,10.836V192.58h9.538v-5.112h1.08V193.3z M553.977,211.804h-9.504v1.512h-1.114
			v-2.232h9.538v-6.948h1.08V211.804z M555.021,218.536h-1.117v-5.22h1.117V218.536z"/>
		<path fill="#9E001E" d="M578.205,190.168h-8.928V218.5h-2.701v-28.332h-8.963v-2.7h20.592V190.168z M564.021,193.768h-6.408
			v-1.116h6.408V193.768z M578.564,192.652l-5.725,2.844V218.5h-1.116v-25.848H578.564L578.564,192.652z M581.518,192.652H580.4
			v-5.184h1.116L581.518,192.652L581.518,192.652z"/>
		<path fill="#9E001E" d="M595.053,210.976c0,2.064-0.736,3.834-2.213,5.31s-3.247,2.214-5.311,2.214
			c-2.232,0-4.104-0.828-5.616-2.484l2.052-1.836c0.96,1.08,2.148,1.62,3.564,1.62c1.318,0,2.446-0.474,3.384-1.422
			c0.937-0.948,1.404-2.082,1.404-3.402c0-1.248-0.422-2.34-1.262-3.276l-4.463-4.932c-1.729-1.92-2.593-4.104-2.593-6.552
			c0-2.472,0.87-4.548,2.61-6.228c1.739-1.679,3.846-2.52,6.317-2.52v2.7c-1.729,0-3.199,0.576-4.41,1.728
			c-1.213,1.152-1.817,2.592-1.817,4.32c0,1.8,0.624,3.384,1.872,4.752l4.5,4.896C594.393,207.304,595.053,209.008,595.053,210.976z
			 M598.581,210.976c0,3.048-1.151,5.568-3.456,7.56h-1.08c2.305-1.992,3.456-4.512,3.456-7.56c0-2.616-0.864-4.872-2.592-6.768
			l-4.464-4.896c-0.84-0.936-1.261-1.968-1.261-3.096c0-1.056,0.354-1.914,1.062-2.574c0.708-0.66,1.59-0.99,2.646-0.99h1.188v0.144
			c-1.944,0.48-2.916,1.8-2.916,3.96c0,0.864,0.36,1.716,1.08,2.556l4.14,4.896C597.849,205.936,598.581,208.192,598.581,210.976z
			 M596.241,192.652c-0.384,0-0.756,0.036-1.116,0.108v-5.292h1.116V192.652z"/>
	</g>
</g>
</svg>
